<svg xmlns="http://www.w3.org/2000/svg" width="1440" height="900" viewBox="0 0 1440 900">
  <defs>
    <linearGradient id="bg" x1="0" y1="0" x2="1" y2="1"><stop stop-color="#0c0b13"/><stop offset="1" stop-color="#12101d"/></linearGradient>
    <linearGradient id="brand" x1="0" y1="0" x2="1" y2="1"><stop stop-color="#9588ff"/><stop offset="1" stop-color="#6250ec"/></linearGradient>
    <linearGradient id="area" x1="0" y1="0" x2="0" y2="1"><stop stop-color="#7c6cff" stop-opacity=".55"/><stop offset="1" stop-color="#7c6cff" stop-opacity="0"/></linearGradient>
    <filter id="shadow"><feDropShadow dx="0" dy="12" stdDeviation="22" flood-opacity=".28"/></filter>
    <style>.t{font-family:Inter,Arial,sans-serif;fill:#f6f5fb}.m{font-family:Inter,Arial,sans-serif;fill:#9997a9}.card{fill:#14131d;stroke:#292735}.h{font-weight:700}.s{font-size:13px}.xs{font-size:11px}</style>
  </defs>
  <rect width="1440" height="900" fill="url(#bg)"/>
  <circle cx="120" cy="190" r="220" fill="#7c6cff" opacity=".055"/>
  <rect x="0" y="0" width="1440" height="70" fill="#0e0d16" stroke="#292735"/>
  <rect x="78" y="17" width="37" height="37" rx="11" fill="url(#brand)"/>
  <path d="M88 37h5l3-9 5 17 4-8h5" fill="none" stroke="#fff" stroke-width="2.2" stroke-linecap="round" stroke-linejoin="round"/>
  <text x="125" y="42" class="t h" font-size="20">DevBoard</text>
  <text x="530" y="41" class="m s">Overview</text><text x="635" y="41" class="m s">Repositories</text><text x="765" y="41" class="m s">Compare</text><text x="860" y="41" class="m s">Activity</text>
  <circle cx="1308" cy="35" r="18" fill="#1b1a26"/><path d="M1308 27a8 8 0 1 0 8 12 9 9 0 0 1-8-12" fill="none" stroke="#aaa8b8" stroke-width="1.5"/>
  <g filter="url(#shadow)"><rect x="78" y="98" width="1284" height="168" rx="24" class="card"/></g>
  <text x="114" y="132" fill="#8b7cff" font-family="Inter,Arial" font-size="11" font-weight="700" letter-spacing="1.5">GITHUB INTELLIGENCE</text>
  <text x="114" y="177" class="t h" font-size="38">Analyze a GitHub profile</text>
  <text x="114" y="205" class="m s">A clear view of code quality, momentum and project health.</text>
  <rect x="720" y="140" width="590" height="74" rx="18" fill="#1b1a26"/>
  <rect x="735" y="154" width="335" height="46" rx="12" fill="#14131d" stroke="#343142"/>
  <circle cx="758" cy="177" r="8" fill="none" stroke="#9997a9" stroke-width="1.6"/><path d="m764 183 6 6" stroke="#9997a9" stroke-width="1.6"/>
  <text x="781" y="182" class="m s">Enter GitHub username</text>
  <rect x="1081" y="154" width="106" height="46" rx="12" fill="url(#brand)"/><text x="1110" y="182" class="t h s">Analyze</text>
  <rect x="1197" y="154" width="98" height="46" rx="12" fill="#14131d" stroke="#343142"/><text x="1218" y="182" class="t h s">Try demo</text>
  <rect x="78" y="286" width="1284" height="76" rx="18" class="card"/>
  <circle cx="116" cy="324" r="24" fill="#302b55"/><text x="109" y="331" class="t h" font-size="18">A</text><text x="153" y="319" class="t h" font-size="16">Alex Morgan</text><text x="153" y="339" class="m xs">@octocat · 2.8K followers</text>
  <circle cx="863" cy="324" r="4" fill="#62d393"/><text x="875" y="328" class="m xs">Demo data</text>
  <rect x="1072" y="305" width="120" height="38" rx="10" fill="#1b1a26" stroke="#343142"/><text x="1094" y="329" class="t h xs">Export PDF</text>
  <rect x="1202" y="305" width="135" height="38" rx="10" fill="#1b1a26" stroke="#343142"/><text x="1222" y="329" class="t h xs">Export Excel</text>
  <text x="78" y="410" class="t h" font-size="20">Engineering overview</text><text x="78" y="431" class="m xs">A clear view of code quality, momentum and project health.</text>
  <g>
    <rect x="78" y="452" width="310" height="100" rx="17" class="card"/><rect x="99" y="478" width="42" height="42" rx="12" fill="#7c6cff" opacity=".14"/><text x="158" y="490" class="m xs">Repositories</text><text x="158" y="522" class="t h" font-size="26">42</text>
    <rect x="402" y="452" width="310" height="100" rx="17" class="card"/><rect x="423" y="478" width="42" height="42" rx="12" fill="#f3c84b" opacity=".14"/><text x="482" y="490" class="m xs">Total stars</text><text x="482" y="522" class="t h" font-size="26">2.8K</text>
    <rect x="726" y="452" width="310" height="100" rx="17" class="card"/><rect x="747" y="478" width="42" height="42" rx="12" fill="#43c6db" opacity=".14"/><text x="806" y="490" class="m xs">Commits</text><text x="806" y="522" class="t h" font-size="26">1.2K</text>
    <rect x="1050" y="452" width="312" height="100" rx="17" class="card"/><rect x="1071" y="478" width="42" height="42" rx="12" fill="#62d393" opacity=".14"/><text x="1130" y="490" class="m xs">Pull requests</text><text x="1130" y="522" class="t h" font-size="26">152</text>
  </g>
  <rect x="78" y="568" width="820" height="280" rx="18" class="card"/><text x="104" y="605" class="t h" font-size="16">Activity &amp; contributions</text><text x="104" y="625" class="m xs">Recent contribution momentum</text>
  <g stroke="#292735" stroke-width="1"><path d="M104 668h768M104 714h768M104 760h768M104 806h768"/></g>
  <path d="M104 802 C145 765 166 790 202 745 S263 776 302 720 S370 752 408 690 S475 735 518 675 S584 713 624 660 S690 701 735 646 S811 683 872 622 L872 806 L104 806Z" fill="url(#area)"/>
  <path d="M104 802 C145 765 166 790 202 745 S263 776 302 720 S370 752 408 690 S475 735 518 675 S584 713 624 660 S690 701 735 646 S811 683 872 622" fill="none" stroke="#7c6cff" stroke-width="3"/>
  <rect x="914" y="568" width="448" height="280" rx="18" class="card"/><text x="940" y="605" class="t h" font-size="16">Language mix</text><text x="940" y="625" class="m xs">Across original repositories</text>
  <circle cx="1034" cy="730" r="68" fill="none" stroke="#292735" stroke-width="25"/><path d="M1034 662a68 68 0 1 1-62 96" fill="none" stroke="#7c6cff" stroke-width="25" stroke-linecap="round"/><path d="M972 758a68 68 0 0 1 6-67" fill="none" stroke="#43c6db" stroke-width="25"/>
  <circle cx="1160" cy="678" r="5" fill="#7c6cff"/><text x="1175" y="683" class="t s">TypeScript</text><text x="1315" y="683" class="t h s" text-anchor="end">58%</text>
  <circle cx="1160" cy="718" r="5" fill="#43c6db"/><text x="1175" y="723" class="t s">Go</text><text x="1315" y="723" class="t h s" text-anchor="end">19%</text>
  <circle cx="1160" cy="758" r="5" fill="#f3c84b"/><text x="1175" y="763" class="t s">JavaScript</text><text x="1315" y="763" class="t h s" text-anchor="end">15%</text>
  <circle cx="1160" cy="798" r="5" fill="#62d393"/><text x="1175" y="803" class="t s">Shell</text><text x="1315" y="803" class="t h s" text-anchor="end">8%</text>
</svg>
